<svg width="215" height="94" viewBox="0 0 215 94" fill="none" xmlns="http://www.w3.org/2000/svg">
<path d="M147.11 6.45594L156.746 32.5922L215 0L168.762 47.5894L192.219 62.7559L164.474 66.2906L167.185 94L147.11 74.6134L127.034 94L129.745 66.2906L102 62.7559L125.457 47.5894L110.934 23.7951L137.473 32.5922L147.11 6.45594Z" fill="#B3F289"/>
<ellipse cx="142.5" cy="63" rx="6.5" ry="11" fill="white"/>
<circle cx="146" cy="63" r="6" fill="black"/>
<ellipse cx="162.5" cy="56" rx="6.5" ry="11" fill="white"/>
<circle cx="166" cy="56" r="6" fill="black"/>
<path d="M2.8 71V35.3H18.45L23.55 56.3H23.65L28.75 35.3H44.4V71H34V48.1H33.9L27.7 71H19.5L13.3 48.1H13.2V71H2.8ZM50.1168 71V35.3H61.3668L71.7668 54.4H71.8668V35.3H82.2668V71H71.5668L60.6168 51.5H60.5168V71H50.1168ZM87.9563 71V35.3H103.606L108.706 56.3H108.806L113.906 35.3H129.556V71H119.156V48.1H119.056L112.856 71H104.656L98.4563 48.1H98.3562V71H87.9563Z" fill="black"/>
</svg>
