<svg width="50" height="50" viewBox="0 0 50 50" fill="none" xmlns="http://www.w3.org/2000/svg">
<path d="M25 5C16.725 5 10 11.725 10 20C10 25.05 12.925 29.275 16.325 32.225C17.4 33.15 19.275 34.625 20.95 36.8C22.8 39.225 24.475 41.825 25 43.575C25.525 41.825 27.2 39.225 29.05 36.8C30.725 34.625 32.6 33.15 33.675 32.225C37.075 29.275 40 25.05 40 20C40 11.725 33.275 5 25 5ZM25 11.4C26.1294 11.4 27.2477 11.6224 28.2911 12.0546C29.3345 12.4868 30.2825 13.1203 31.0811 13.9189C31.8797 14.7175 32.5132 15.6655 32.9454 16.7089C33.3776 17.7523 33.6 18.8706 33.6 20C33.6 21.1294 33.3776 22.2477 32.9454 23.2911C32.5132 24.3345 31.8797 25.2825 31.0811 26.0811C30.2825 26.8797 29.3345 27.5132 28.2911 27.9454C27.2477 28.3776 26.1294 28.6 25 28.6C22.7191 28.6 20.5317 27.6939 18.9189 26.0811C17.3061 24.4683 16.4 22.2809 16.4 20C16.4 17.7191 17.3061 15.5317 18.9189 13.9189C20.5317 12.3061 22.7191 11.4 25 11.4Z" fill="black"/>
</svg>
